<?xml version="1.0" encoding="UTF-8"?>
<!DOCTYPE svg PUBLIC "-//W3C//DTD SVG 1.1//EN" "http://www.w3.org/Graphics/SVG/1.1/DTD/svg11.dtd">
<!-- Creator: CorelDRAW -->
<svg xmlns="http://www.w3.org/2000/svg" xml:space="preserve" width="160.043mm" height="40.0806mm" version="1.1" style="shape-rendering:geometricPrecision; text-rendering:geometricPrecision; image-rendering:optimizeQuality; fill-rule:evenodd; clip-rule:evenodd"
viewBox="0 0 15087.71 3778.5"
 xmlns:xlink="http://www.w3.org/1999/xlink"
 xmlns:xodm="http://www.corel.com/coreldraw/odm/2003">
 <defs>
  <style type="text/css">
   <![CDATA[
    .fil1 {fill:#005FE1}
    .fil0 {fill:#01122A}
    .fil2 {fill:#2C2B2B}
    .fil4 {fill:#005FE1;fill-rule:nonzero}
    .fil3 {fill:#01122A;fill-rule:nonzero}
   ]]>
  </style>
 </defs>
 <g id="Layer_x0020_1">
  <metadata id="CorelCorpID_0Corel-Layer"/>
  <g id="_1733465664528">
   <polygon class="fil0" points="315.97,2971.91 1629.64,607.87 2775.48,2678.92 2903.59,2597.07 2896.47,2468.97 3241.65,2251.89 3252.32,2785.67 2601.12,3191.34 1626.09,1433.44 654.62,3180.67 "/>
   <polygon class="fil1" points="1630.05,404.04 2900.24,1177.87 2901.84,2296.41 3256.53,2076.12 3249.07,967.26 1628.55,1.73 -0,972.38 -0,2788.61 186.99,2896.57 354.63,2606.21 354.63,1154.9 "/>
   <polygon class="fil1" points="962.37,2947.74 782.42,3259.43 1626.23,3766.05 2455.38,3251.22 2290.08,2945.03 1629.52,3355.63 "/>
   <g>
    <polygon class="fil1" points="1219.23,2358.79 1601.59,2579.55 1601.59,3055.65 1209.52,2832.26 "/>
    <polygon class="fil2" points="1241.75,2321.67 1624.95,2547.97 2009.52,2324.44 1623.54,2096.76 "/>
    <polygon class="fil0" points="2037.3,2363.61 1654.94,2584.37 1654.94,3060.48 2047.02,2837.09 "/>
   </g>
  </g>
  <path class="fil3" d="M5341.67 0l415 2789.74 -741.23 0 -39.39 -500.81 -261.57 0 -39.39 500.81 -750.64 0 367.97 -2789.74 1049.24 0zm-385.01 1795.17c-34.68,-316.24 -71.13,-707.72 -109.92,-1175.03 -71.71,536.08 -116.97,927.57 -136.37,1175.03l246.3 0zm1109.34 -1795.17l542.55 0c349.74,0 586.63,15.87 710.07,48.2 123.44,32.33 217.49,85.23 281.56,158.71 64.07,73.48 104.62,155.18 120.5,245.11 15.87,90.53 24.1,267.46 24.1,531.97l0 976.94c0,250.41 -11.76,417.94 -35.27,501.99 -23.51,84.65 -64.65,151.07 -122.85,198.68 -58.79,47.62 -131.09,80.53 -217.5,99.93 -85.82,18.81 -215.72,28.22 -389.13,28.22l-914.04 0 0 -2789.74zm726.53 476.12l0 1837.5c102.87,0 166.35,-21.16 189.87,-62.9 24.1,-42.32 35.85,-156.36 35.85,-342.69l0 -1085.1c0,-126.38 -4.11,-207.5 -11.76,-243.36 -8.23,-35.86 -25.86,-61.72 -54.67,-78.18 -28.22,-17.04 -81.11,-25.27 -159.29,-25.27zm3072.04 -476.12l0 2789.74 -726.53 0 0 -1170.92 -211.61 0 0 1170.92 -726.53 0 0 -2789.74 726.53 0 0 998.1 211.61 0 0 -998.1 726.53 0zm478.04 0l513.15 0c342.11,0 573.71,12.92 694.79,39.38 121.09,26.45 219.84,94.06 296.26,202.8 76.42,108.16 114.62,281.55 114.62,519.04 0,216.9 -27.04,362.68 -81.11,437.33 -53.49,74.65 -159.89,119.32 -318.59,134.02 143.43,35.85 240.41,83.47 289.79,143.43 49.37,59.36 79.94,114.63 91.7,164.59 12.34,49.96 18.21,187.51 18.21,412.64l0 736.52 -673.63 0 0 -928.15c0,-149.31 -11.76,-241.59 -35.27,-277.44 -22.93,-35.86 -84.06,-53.49 -183.4,-53.49l0 1259.09 -726.53 0 0 -2789.74zm726.53 476.12l0 620.73c81.12,0 137.54,-11.17 169.88,-33.5 32.33,-22.34 48.79,-95.22 48.79,-218.08l0 -153.42c0,-88.76 -15.88,-146.95 -47.02,-174.57 -31.16,-27.63 -88.76,-41.15 -171.64,-41.15zm2083.93 -476.12l0 2789.74 -726.53 0 0 -2789.74 726.53 0zm1934.63 0l0 557.24 -426.74 0 0 2232.51 -726.54 0 0 -2232.51 -430.27 0 0 -557.24 1583.55 0z"/>
  <path class="fil4" d="M4175.59 3768.39l0 -463.1 -165.01 0 0 -94.18 442.08 0 0 94.18 -164.22 0 0 463.1 -112.85 0zm788.29 0l0 -557.27 412.51 0 0 94.18 -299.66 0 0 123.75 278.64 0 0 94.18 -278.64 0 0 150.99 310.55 0 0 94.18 -423.41 0zm1313.78 -205.48l108.97 33.47c-16.73,61.36 -44.63,106.89 -83.54,136.72 -38.92,29.71 -88.2,44.63 -148.01,44.63 -74.07,0 -134.9,-25.29 -182.64,-75.89 -47.61,-50.59 -71.48,-119.73 -71.48,-207.55 0,-92.75 24,-164.87 71.86,-216.24 47.87,-51.37 110.91,-77.05 189.01,-77.05 68.23,0 123.62,20.23 166.16,60.58 25.43,23.87 44.36,58.11 57.08,102.86l-111.3 26.46c-6.62,-28.79 -20.37,-51.62 -41.25,-68.36 -21.01,-16.73 -46.44,-25.04 -76.28,-25.04 -41.38,0 -74.98,14.79 -100.66,44.5 -25.81,29.57 -38.65,77.57 -38.65,143.98 0,70.31 12.71,120.52 38,150.35 25.43,29.97 58.37,44.88 98.98,44.88 29.97,0 55.78,-9.46 77.31,-28.54 21.53,-19.07 37.11,-48.9 46.44,-89.77zm643.79 205.48l0 -557.27 112.85 0 0 219.49 219.49 0 0 -219.49 112.85 0 0 557.27 -112.85 0 0 -243.61 -219.49 0 0 243.61 -112.85 0zm1000.25 0l0 -557.27 109.22 0 229.34 373.46 0 -373.46 104.3 0 0 557.27 -112.73 0 -225.84 -366.32 0 366.32 -104.29 0zm976.9 -275.27c0,-56.82 8.56,-104.55 25.56,-143.21 12.59,-28.4 29.96,-53.96 51.89,-76.53 21.92,-22.57 45.92,-39.3 72,-50.33 34.76,-14.66 74.84,-22.05 120.24,-22.05 82.24,0 147.89,25.55 197.3,76.53 49.3,51.11 73.94,122.06 73.94,213 0,90.15 -24.51,160.73 -73.42,211.58 -48.9,50.97 -114.41,76.4 -196.27,76.4 -82.88,0 -148.91,-25.29 -197.82,-76.01 -48.9,-50.59 -73.42,-120.38 -73.42,-209.37zm115.97 -3.76c0,63.17 14.65,111.04 43.84,143.73 29.19,32.56 66.29,48.91 111.18,48.91 45.01,0 81.85,-16.21 110.78,-48.51 28.79,-32.43 43.2,-80.95 43.2,-145.68 0,-63.95 -14.01,-111.68 -42.16,-143.08 -28.02,-31.52 -65.25,-47.22 -111.82,-47.22 -46.44,0 -83.93,15.96 -112.34,47.74 -28.41,31.91 -42.68,79.91 -42.68,144.11zm954.07 279.03l0 -552.61 112.85 0 0 458.43 279.41 0 0 94.18 -392.27 0zm887.13 -275.27c0,-56.82 8.56,-104.55 25.56,-143.21 12.59,-28.4 29.96,-53.96 51.89,-76.53 21.92,-22.57 45.92,-39.3 72,-50.33 34.76,-14.66 74.84,-22.05 120.24,-22.05 82.24,0 147.89,25.55 197.3,76.53 49.3,51.11 73.94,122.06 73.94,213 0,90.15 -24.51,160.73 -73.42,211.58 -48.9,50.97 -114.41,76.4 -196.27,76.4 -82.88,0 -148.91,-25.29 -197.82,-76.01 -48.9,-50.59 -73.42,-120.38 -73.42,-209.37zm115.97 -3.76c0,63.17 14.65,111.04 43.84,143.73 29.19,32.56 66.29,48.91 111.18,48.91 45.01,0 81.85,-16.21 110.78,-48.51 28.79,-32.43 43.2,-80.95 43.2,-145.68 0,-63.95 -14.01,-111.68 -42.16,-143.08 -28.02,-31.52 -65.25,-47.22 -111.82,-47.22 -46.44,0 -83.93,15.96 -112.34,47.74 -28.41,31.91 -42.68,79.91 -42.68,144.11zm1210.13 74.33l0 -94.18 242.06 0 0 222.34c-23.48,22.96 -57.6,43.06 -102.35,60.58 -44.63,17.37 -89.9,26.07 -135.82,26.07 -58.24,0 -108.96,-12.19 -152.29,-36.71 -43.2,-24.51 -75.76,-59.67 -97.55,-105.2 -21.79,-45.53 -32.68,-95.22 -32.68,-148.79 0,-58.11 12.19,-109.74 36.45,-155.01 24.39,-45.15 59.94,-79.91 106.76,-104.04 35.8,-18.54 80.17,-27.75 133.35,-27.75 69.14,0 123.23,14.53 162.15,43.58 38.78,29.19 63.82,69.27 74.98,120.64l-112.07 21.01c-7.79,-27.37 -22.57,-49.03 -44.23,-64.99 -21.53,-15.82 -48.52,-23.74 -80.95,-23.74 -49.03,0 -88.08,15.56 -117,46.83 -28.93,31.26 -43.46,77.57 -43.46,138.93 0,66.28 14.66,115.96 43.98,149.05 29.44,33.08 67.84,49.68 115.45,49.68 23.48,0 47.09,-4.68 70.7,-13.88 23.74,-9.21 43.97,-20.5 60.97,-33.73l0 -70.7 -128.43 0zm780.51 204.69l0 -557.27 112.85 0 0 557.27 -112.85 0zm658.32 0l0 -557.27 412.51 0 0 94.18 -299.66 0 0 123.75 278.64 0 0 94.18 -278.64 0 0 150.99 310.55 0 0 94.18 -423.41 0zm927.75 -180.57l109.74 -10.9c6.61,36.71 19.84,63.57 39.95,80.82 20.1,17.25 47.21,25.81 81.33,25.81 36.06,0 63.3,-7.65 81.59,-22.96 18.29,-15.3 27.5,-33.2 27.5,-53.7 0,-13.24 -3.88,-24.39 -11.54,-33.73 -7.65,-9.21 -21.15,-17.25 -40.35,-23.99 -13.09,-4.68 -42.93,-12.72 -89.63,-24.39 -60.06,-15.05 -102.22,-33.47 -126.48,-55.39 -34.12,-30.74 -51.11,-68.23 -51.11,-112.47 0,-28.4 8.04,-55.13 23.99,-79.91 16.09,-24.77 39.18,-43.58 69.4,-56.55 30.22,-12.97 66.55,-19.46 109.36,-19.46 69.66,0 122.2,15.43 157.34,46.44 35.29,31 53.71,72.25 55.53,124.01l-112.85 3.89c-4.81,-28.8 -15.06,-49.42 -30.75,-62 -15.7,-12.59 -39.3,-18.94 -70.7,-18.94 -32.43,0 -57.86,6.74 -76.14,20.24 -11.8,8.68 -17.77,20.23 -17.77,34.76 0,13.24 5.58,24.52 16.73,33.86 14.14,12.06 48.51,24.51 103.12,37.48 54.61,12.84 94.96,26.33 121.03,40.08 26.21,13.88 46.7,32.69 61.49,56.69 14.78,24 22.18,53.58 22.18,88.73 0,31.91 -8.82,61.88 -26.59,89.77 -17.77,27.89 -42.81,48.64 -75.24,62.14 -32.43,13.62 -72.9,20.36 -121.29,20.36 -70.43,0 -124.52,-16.21 -162.27,-48.77 -37.76,-32.43 -60.19,-79.78 -67.58,-141.92z"/>
 </g>
</svg>
